<svg width="1512" height="400" viewBox="0 0 1512 400" fill="none" xmlns="http://www.w3.org/2000/svg">
<path d="M0 330.175C50.4 306.235 100.8 306.235 151.2 330.175C201.6 354.115 252 354.115 302.4 330.175C352.8 306.235 403.2 306.235 453.6 330.175C504 354.115 554.4 354.115 604.8 330.175C655.2 306.235 705.6 306.235 756 330.175C806.4 354.115 856.8 354.115 907.2 330.175C957.6 306.235 1008 306.235 1058.4 330.175C1108.8 354.115 1159.2 354.115 1209.6 330.175C1260 306.235 1310.4 306.235 1360.8 330.175C1411.2 354.115 1461.6 354.115 1512 330.175" stroke="#4E4842" stroke-opacity="0.15" stroke-width="2" stroke-linejoin="round"/>
<path d="M0 278.305C50.4 254.365 100.8 254.365 151.2 278.305C201.6 302.245 252 302.245 302.4 278.305C352.8 254.365 403.2 254.365 453.6 278.305C504 302.245 554.4 302.245 604.8 278.305C655.2 254.365 705.6 254.365 756 278.305C806.4 302.245 856.8 302.245 907.2 278.305C957.6 254.365 1008 254.365 1058.4 278.305C1108.8 302.245 1159.2 302.245 1209.6 278.305C1260 254.365 1310.4 254.365 1360.8 278.305C1411.2 302.245 1461.6 302.245 1512 278.305" stroke="#4E4842" stroke-opacity="0.15" stroke-width="2" stroke-linejoin="round"/>
<path d="M0 226.435C50.4 202.495 100.8 202.495 151.2 226.435C201.6 250.375 252 250.375 302.4 226.435C352.8 202.495 403.2 202.495 453.6 226.435C504 250.375 554.4 250.375 604.8 226.435C655.2 202.495 705.6 202.495 756 226.435C806.4 250.375 856.8 250.375 907.2 226.435C957.6 202.495 1008 202.495 1058.4 226.435C1108.8 250.375 1159.2 250.375 1209.6 226.435C1260 202.495 1310.4 202.495 1360.8 226.435C1411.2 250.375 1461.6 250.375 1512 226.435" stroke="#4E4842" stroke-opacity="0.15" stroke-width="2" stroke-linejoin="round"/>
<path d="M0 174.565C50.4 150.625 100.8 150.625 151.2 174.565C201.6 198.505 252 198.505 302.4 174.565C352.8 150.625 403.2 150.625 453.6 174.565C504 198.505 554.4 198.505 604.8 174.565C655.2 150.625 705.6 150.625 756 174.565C806.4 198.505 856.8 198.505 907.2 174.565C957.6 150.625 1008 150.625 1058.4 174.565C1108.8 198.505 1159.2 198.505 1209.6 174.565C1260 150.625 1310.4 150.625 1360.8 174.565C1411.2 198.505 1461.6 198.505 1512 174.565" stroke="#4E4842" stroke-opacity="0.15" stroke-width="2" stroke-linejoin="round"/>
<path d="M0 122.695C50.4 98.755 100.8 98.755 151.2 122.695C201.6 146.635 252 146.635 302.4 122.695C352.8 98.755 403.2 98.755 453.6 122.695C504 146.635 554.4 146.635 604.8 122.695C655.2 98.755 705.6 98.755 756 122.695C806.4 146.635 856.8 146.635 907.2 122.695C957.6 98.755 1008 98.755 1058.4 122.695C1108.8 146.635 1159.2 146.635 1209.6 122.695C1260 98.755 1310.4 98.755 1360.8 122.695C1411.2 146.635 1461.6 146.635 1512 122.695" stroke="#4E4842" stroke-opacity="0.15" stroke-width="2" stroke-linejoin="round"/>
<path d="M0 70.825C50.4 46.885 100.8 46.885 151.2 70.825C201.6 94.765 252 94.765 302.4 70.825C352.8 46.885 403.2 46.885 453.6 70.825C504 94.765 554.4 94.765 604.8 70.825C655.2 46.885 705.6 46.885 756 70.825C806.4 94.765 856.8 94.765 907.2 70.825C957.6 46.885 1008 46.885 1058.4 70.825C1108.8 94.765 1159.2 94.765 1209.6 70.825C1260 46.885 1310.4 46.885 1360.8 70.825C1411.2 94.765 1461.6 94.765 1512 70.825" stroke="#4E4842" stroke-opacity="0.15" stroke-width="2" stroke-linejoin="round"/>
<path d="M0 18.955C50.4 -4.985 100.8 -4.985 151.2 18.955C201.6 42.895 252 42.895 302.4 18.955C352.8 -4.985 403.2 -4.985 453.6 18.955C504 42.895 554.4 42.895 604.8 18.955C655.2 -4.985 705.6 -4.985 756 18.955C806.4 42.895 856.8 42.895 907.2 18.955C957.6 -4.985 1008 -4.985 1058.4 18.955C1108.8 42.895 1159.2 42.895 1209.6 18.955C1260 -4.985 1310.4 -4.985 1360.8 18.955C1411.2 42.895 1461.6 42.895 1512 18.955" stroke="#4E4842" stroke-opacity="0.15" stroke-width="2" stroke-linejoin="round"/>
<mask id="mask0_25_940" style="mask-type:alpha" maskUnits="userSpaceOnUse" x="-1" y="363" width="1514" height="38">
<path d="M0 382.045C50.4 358.105 100.8 358.105 151.2 382.045C201.6 405.985 252 405.985 302.4 382.045C352.8 358.105 403.2 358.105 453.6 382.045C504 405.985 554.4 405.985 604.8 382.045C655.2 358.105 705.6 358.105 756 382.045C806.4 405.985 856.8 405.985 907.2 382.045C957.6 358.105 1008 358.105 1058.4 382.045C1108.8 405.985 1159.2 405.985 1209.6 382.045C1260 358.105 1310.4 358.105 1360.8 382.045C1411.2 405.985 1461.6 405.985 1512 382.045" stroke="#121213" stroke-width="2" stroke-linejoin="round"/>
</mask>
<g mask="url(#mask0_25_940)">
</g>
</svg>
